<?xml version="1.0" encoding="UTF-8"?>
<svg width="544px" height="329px" viewBox="0 0 544 329" version="1.1" xmlns="http://www.w3.org/2000/svg" xmlns:xlink="http://www.w3.org/1999/xlink">
    <!-- Generator: sketchtool 63.1 (101010) - https://sketch.com -->
    <title>D142E1F0-3D7E-4270-B13B-306DD9D83D5C</title>
    <desc>Created with sketchtool.</desc>
    <g id="Page-1" stroke="none" stroke-width="1" fill="none" fill-rule="evenodd">
        <g id="210915_gamiplat_landing_page" transform="translate(-398.000000, -2790.000000)">
            <g id="Image4" transform="translate(398.000000, 2790.000000)">
                <rect id="box-copy-3" fill="#141414" x="0" y="0" width="544" height="329" rx="4"></rect>
                <g id="st-jude-children-s-research-hospital-seeklogo.com" transform="translate(137.000000, 53.000000)" fill="#FFFFFF" fill-rule="nonzero">
                    <g>
                        <path d="M166.5384,79.0608 C168.0504,79.2624 168.7224,77.9352 169.6128,76.944 C170.016,76.5072 170.3184,75.8688 170.8224,75.684 C171.3264,75.4824 171.9984,75.7176 172.9056,75.8016 C173.4936,75.012 174.5688,75.6336 175.6104,75.8352 C175.728,75.852 175.9296,75.9696 175.9464,76.0368 C176.064,77.1288 177.156,77.952 176.7192,79.212 C174.8376,84.5376 171.3936,87.948 165.5304,88.452 C165.0768,88.4856 164.5224,88.7544 164.2536,89.1072 C162.036,91.8792 159.8688,94.7016 157.4496,97.8264 C181.7928,100.9008 204.4728,107.8728 225.5568,119.8344 C164.0856,97.3392 102.6984,97.3728 41.5464,119.868 C60.732,108.8976 81.6144,102.06 103.6224,98.6496 C103.8408,94.9032 104.0256,91.2576 104.2944,87.612 C104.6136,83.3112 104.5464,79.044 104.0256,74.7432 C103.4544,70.1568 105.1512,65.8392 106.3104,61.4712 C106.7808,59.7072 107.0328,57.9096 107.3352,56.112 C107.8392,53.172 109.2504,50.9376 112.0392,49.644 C112.3752,49.4928 112.8288,49.1904 112.896,48.888 C113.232,47.3424 113.5512,45.7632 113.6688,44.184 C113.7696,42.7224 112.98,41.6808 111.5688,41.1432 C109.116,40.2192 108.7128,37.9848 107.9736,35.7336 C109.2168,35.952 110.2584,36.1368 111.2832,36.3216 C111.3672,36.1704 111.4344,36.036 111.5184,35.8848 C110.8968,35.448 110.3424,34.8936 109.6704,34.608 C107.9568,33.8688 107.268,32.8608 107.4696,31.0296 C109.8048,31.7016 110.1072,31.3824 110.208,28.8288 C110.3256,25.6368 109.9224,22.2264 110.9304,19.32 C114.408,9.1056 121.0608,1.932 132.3,0.3528 C138.1128,-0.4536 143.4552,1.3608 148.2096,4.704 C154.8624,9.3744 160.1208,15.2208 162.5736,23.2008 C163.3968,25.9056 163.6992,28.6608 163.296,31.4496 C163.1616,32.4072 163.0104,33.3312 161.7336,33.5664 C161.28,33.6504 160.8432,34.188 160.5408,34.6248 C158.9616,36.9096 157.1472,38.9088 154.5768,40.152 C153.1992,40.824 152.6952,42.2016 152.9808,43.764 C153.216,45.024 153.5688,46.2504 153.7536,47.5104 C153.972,49.0728 153.3336,50.0136 151.7544,50.1816 C150.6288,50.2992 150.2256,50.8032 150.2592,51.8112 C150.2928,52.9872 149.7048,53.4744 148.5792,53.4072 C147.8568,53.3568 147.4032,53.4912 147.3024,54.3984 C147.1848,55.5072 146.4288,55.8936 145.3032,55.6752 C144.9,55.5912 144.228,55.6752 144.0264,55.944 C142.3632,58.2288 140.2632,58.4304 137.5752,57.1032 C137.34,56.9856 137.1048,56.9184 136.7184,56.784 C138.4152,58.8672 139.9944,60.7992 141.5904,62.7312 C144.9,66.7296 146.5128,71.4 147.1008,76.5072 C147.42,79.2624 148.0248,81.984 148.512,84.8232 C152.2584,83.4624 155.8536,82.1352 158.844,79.3464 C160.6416,77.6664 163.0104,76.608 165.1104,75.264 C165.5304,74.9952 165.9168,74.6424 166.3704,74.4744 C166.9248,74.2728 167.832,73.92 168.0336,74.1552 C168.4032,74.5584 168.6552,75.4656 168.4536,75.936 C168.0168,77.0448 167.2272,78.0024 166.5384,79.0608 Z M117.0792,82.4544 C117.7176,83.0592 118.188,83.7312 118.8264,84.0504 C119.1456,84.2184 119.9352,83.916 120.2544,83.58 C124.3872,79.3296 129.3096,76.7256 135.2904,76.2216 C135.9288,76.1712 136.5336,75.7344 137.1552,75.4824 C136.6512,74.8608 136.2144,74.1888 135.6264,73.668 C135.324,73.3992 134.7696,73.2816 134.3496,73.2816 C132.804,73.332 131.2416,73.2984 129.7464,73.6008 C125.8152,74.424 122.0856,75.7848 119.364,78.9768 C118.5408,79.9512 117.9528,81.0936 117.0792,82.4544 Z" id="Shape"></path>
                        <path d="M172.6536,135.5424 C172.6536,140.7672 172.62,145.8408 172.6872,150.9144 C172.704,151.7376 172.9728,152.88 173.544,153.2832 C174.6696,154.0392 176.1144,153.9384 177.3072,153.2496 C177.6936,153.0144 177.9624,152.2584 177.9792,151.7376 C178.0632,147.2184 178.0968,142.6824 178.1136,138.1464 C178.1136,136.3656 178.0128,134.5848 178.0296,132.804 C178.0464,131.5944 177.5088,131.0064 176.3328,131.0064 C175.4256,131.0064 175.224,130.5696 175.5096,129.7128 C177.7104,129.2256 179.9112,128.7384 182.28,128.2176 C182.28,128.8056 182.28,129.2928 182.28,129.78 C182.28,136.836 182.28,143.8752 182.28,150.9312 C182.28,153.0312 182.3472,153.0648 184.3128,153.6864 C184.6824,153.804 184.9176,154.3416 185.2032,154.6944 C185.1024,154.7952 185.0016,154.896 184.9008,154.9968 C175.6272,154.9968 166.3536,154.9968 157.0632,154.9968 C156.6768,154.224 156.828,153.72 157.6848,153.6192 C158.9616,153.4848 159.1968,152.628 159.1968,151.5864 C159.1968,148.6128 159.2472,145.6392 159.18,142.6656 C159.1464,141.1704 158.8272,139.692 157.3152,138.9528 C155.8368,138.2136 154.3584,138.4992 153.0648,139.4568 C152.6952,139.7256 152.3424,140.3136 152.3256,140.7504 C152.2752,144.4632 152.292,148.1592 152.292,151.872 C152.292,152.796 152.5944,153.4176 153.6024,153.6696 C153.972,153.7536 154.224,154.3248 154.5264,154.6776 C154.4256,154.812 154.3416,154.9464 154.2408,155.064 C151.5024,155.064 148.7808,155.0808 146.0424,155.0304 C145.7904,155.0304 145.3704,154.6776 145.3704,154.4592 C145.3536,154.224 145.656,153.8376 145.908,153.7368 C147.9408,152.9472 147.9576,152.964 147.9576,150.7632 C147.9576,144.9 147.924,139.0536 147.9744,133.1904 C147.9912,131.8464 147.756,130.956 146.1432,130.9392 C145.8408,130.9392 145.5552,130.3512 145.0512,129.8304 C147.672,129.2424 149.8896,128.7552 152.2416,128.2512 C152.2416,131.5608 152.2416,134.736 152.2416,138.1296 C153.1152,137.5248 153.7872,137.004 154.5096,136.584 C158.8608,134.0304 163.2456,136.4664 163.3296,141.4728 C163.38,144.9 163.3632,148.3272 163.464,151.7544 C163.5144,153.2832 164.3208,153.8712 165.9168,153.7704 C167.7816,153.6696 168.3696,153.1824 168.3696,151.5696 C168.4032,147.8568 168.3696,144.1608 168.4032,140.448 C168.42,139.2216 168.084,138.4152 166.7232,138.264 C166.404,138.2304 166.1184,137.8944 165.816,137.6928 C166.1352,137.4576 166.4208,137.088 166.7736,137.004 C168.672,136.4664 170.5872,136.0296 172.6536,135.5424 Z" id="Path"></path>
                        <path d="M171.0576,187.8408 C167.2272,187.8408 163.3968,187.8408 159.5664,187.8408 C159.4824,187.7232 159.3984,187.6056 159.3144,187.488 C159.6504,187.2024 159.936,186.7488 160.3224,186.648 C162.792,186.0432 163.0608,185.7744 163.0776,183.2544 C163.0944,180.4656 163.0776,177.6768 163.0776,174.804 C159.012,174.804 155.064,174.804 151.032,174.804 C151.032,178.0296 150.9816,181.2216 151.0656,184.4136 C151.0992,185.6904 151.8888,186.4632 153.2664,186.5808 C153.6528,186.6144 153.9888,187.0512 154.3584,187.32 C153.9888,187.5048 153.6024,187.8576 153.2328,187.8744 C149.8056,187.9248 146.3784,187.8912 143.0016,187.8912 C142.4304,186.8832 143.052,186.732 143.724,186.5976 C145.9584,186.1272 146.2944,185.7912 146.2944,183.5064 C146.328,177.5088 146.328,171.5112 146.2944,165.5136 C146.2776,163.296 145.824,162.8256 143.6736,162.3888 C142.7496,162.204 142.7496,162.204 142.8168,161.1456 C146.5464,161.1456 150.2928,161.1456 154.1064,161.1456 C154.3248,161.8176 154.4088,162.3216 153.4008,162.372 C151.8552,162.4392 151.032,163.3464 150.9984,164.8248 C150.9312,167.4288 150.9816,170.016 150.9816,172.704 C155.0136,172.704 158.9616,172.704 163.0104,172.704 C163.0104,169.9152 163.0776,167.1936 162.9768,164.4552 C162.9264,163.0104 162.3384,162.708 159.8184,162.2208 C159.6,161.4984 159.6672,161.0616 160.6416,161.0784 C163.884,161.112 167.1432,161.0616 170.3856,161.1288 C170.7384,161.1288 171.0744,161.616 171.4104,161.868 C171.3264,162.0024 171.2592,162.12 171.1752,162.2544 C170.9568,162.288 170.7384,162.3216 170.52,162.3552 C168.2184,162.7752 167.748,163.212 167.7144,165.5976 C167.664,171.4944 167.664,177.408 167.6976,183.3048 C167.7144,185.7072 168.0504,186.0096 170.3856,186.648 C170.7552,186.7488 171.0408,187.1856 171.36,187.4712 C171.276,187.5888 171.1752,187.7064 171.0576,187.8408 Z" id="Path"></path>
                        <path d="M0,187.488 C0.3192,187.2192 0.6048,186.7824 0.9744,186.6816 C3.1752,186.144 3.6288,185.7408 3.6456,183.4392 C3.696,177.492 3.696,171.5448 3.6456,165.5976 C3.6288,163.128 3.1752,162.7416 0.0672,162.1704 C0.4032,161.7168 0.6552,161.112 0.8904,161.112 C5.544,161.1624 10.2144,161.1288 14.868,161.4312 C17.7744,161.6328 19.824,163.38 20.3784,166.3368 C20.9328,169.3608 19.992,171.948 17.3712,173.7456 C16.7328,174.1824 16.044,174.5184 15.2376,174.9888 C17.388,178.8528 19.5888,182.6664 22.6296,185.9088 C23.0832,186.396 23.772,186.648 24.3096,187.0512 C24.5112,187.2024 24.7464,187.6056 24.6792,187.7568 C24.5616,188.0088 24.2088,188.328 23.9568,188.328 C20.0928,188.2608 16.7496,187.2528 14.868,183.4392 C13.9776,181.6416 12.9192,179.928 11.9448,178.1808 C10.8864,176.2824 10.584,176.1312 8.0136,176.4 C8.148,179.2728 8.1984,182.1792 8.4336,185.0688 C8.5344,186.2952 9.7272,186.4128 10.7184,186.6648 C11.088,186.7656 11.3736,187.1688 11.7096,187.4208 C11.6256,187.5552 11.5416,187.6728 11.4576,187.8072 C7.728,187.8072 3.9816,187.8072 0.252,187.8072 C0.1848,187.7232 0.084,187.6056 0,187.488 Z M8.1312,174.7536 C9.408,174.6864 10.5672,174.7704 11.6592,174.552 C13.692,174.1152 15.288,172.1496 15.5064,169.932 C15.7584,167.3784 15.5568,164.9592 13.0368,163.4808 C12.5328,163.1952 11.9616,162.9768 11.3904,162.876 C8.484,162.3552 8.1312,162.6576 8.1312,165.5808 C8.1312,166.7736 8.1312,167.9496 8.1312,169.1424 C8.1312,170.94 8.1312,172.7544 8.1312,174.7536 Z" id="Shape"></path>
                        <path d="M202.5408,170.9064 C202.9608,170.436 203.1456,169.9824 203.4648,169.8984 C205.4976,169.26 207.564,168.6888 209.7312,168.0504 C209.7312,169.008 209.7312,169.848 209.7312,170.9736 C210.7392,170.4024 211.6296,170.0496 212.352,169.4784 C215.5272,167.0592 219.7272,169.0752 221.256,172.0488 C223.8096,177.0216 221.7936,183.7584 216.7704,186.732 C214.0152,188.3616 212.8056,188.58 209.7816,187.9584 C209.7816,190.1088 209.748,192.2424 209.7984,194.376 C209.8152,195.3504 210.3024,196.0056 211.3776,196.1232 C211.9656,196.1904 212.5368,196.3416 213.5616,196.5432 C213.1248,197.0472 212.8392,197.652 212.5536,197.652 C209.3616,197.7192 206.1696,197.7024 203.028,197.7024 C202.7088,196.8288 202.8096,196.3584 203.7336,196.2744 C205.2288,196.14 205.632,195.1656 205.6152,193.788 C205.5816,187.236 205.5984,180.7008 205.5984,174.1488 C205.5816,171.4776 205.5648,171.444 202.5408,170.9064 Z M209.7648,178.6848 C209.7648,180.096 209.7648,181.524 209.7648,182.9352 C209.7648,184.8504 210.0672,185.2872 211.8312,185.9088 C213.9648,186.6648 215.8968,185.9256 216.9216,183.7248 C218.4,180.5832 218.4168,177.3408 217.056,174.1824 C215.9136,171.528 213.1248,170.7552 210.6552,172.284 C210.2184,172.5528 209.8488,173.2416 209.8152,173.7624 C209.6976,175.392 209.7648,177.0384 209.7648,178.6848 Z" id="Shape"></path>
                        <path d="M93.492,127.9656 C93.492,131.1072 93.492,134.064 93.492,137.0376 C93.492,141.3384 93.492,145.6392 93.492,149.9232 C93.492,152.544 93.492,152.544 96.1128,152.712 C96.4152,153.468 96.348,153.888 95.3568,154.0728 C93.3576,154.4424 91.3752,154.9632 89.2416,155.4504 C89.1912,154.7616 89.1576,154.1064 89.0904,153.2328 C88.5192,153.5688 88.0152,153.8376 87.5448,154.14 C84.3528,156.1392 81.1272,155.6688 78.7248,152.7288 C76.1208,149.5368 75.8016,145.8912 77.2128,142.1616 C78.6408,138.3984 81.564,136.2648 85.5288,135.6936 C86.6376,135.5256 87.7968,135.66 89.124,135.66 C89.124,134.3664 89.2248,133.1064 89.0736,131.88 C89.0232,131.46 88.368,131.04 87.8976,130.788 C87.528,130.6032 87.0072,130.6704 86.4864,130.6368 C86.3352,129.9648 86.1672,129.4608 87.1584,129.2928 C89.2248,128.9232 91.2576,128.436 93.492,127.9656 Z M89.1744,145.3872 C89.1744,143.8416 89.1744,142.2792 89.1744,140.7336 C89.1744,138.684 88.3512,137.7432 86.3352,137.508 C84.6384,137.3064 83.1264,138.1464 82.3032,139.944 C81.06,142.6152 80.9928,145.4208 81.7488,148.2264 C82.3032,150.2928 83.3952,152.0064 85.68,152.544 C87.7968,153.0312 89.1912,151.9224 89.1912,149.7888 C89.1744,148.3104 89.1744,146.8488 89.1744,145.3872 Z" id="Shape"></path>
                        <path d="M204.3552,152.796 C203.8848,153.3672 203.6496,153.9216 203.3136,154.0224 C201.2976,154.5432 199.248,154.9632 197.0304,155.4672 C196.9968,154.7784 196.9464,154.0896 196.896,153.2496 C196.1232,153.7032 195.4176,154.0392 194.8128,154.4928 C192.696,156.072 190.596,155.652 188.5464,154.4592 C184.968,152.376 183.3552,147.756 184.5984,143.2872 C185.9592,138.348 190.5456,135.1728 195.6864,135.6264 C196.0392,135.66 196.4088,135.6264 196.98,135.6264 C196.98,134.82 196.9968,134.0136 196.98,133.2072 C196.9128,131.3592 196.7952,131.2584 194.9976,130.9392 C194.6112,130.872 194.2752,130.4016 193.9224,130.116 C193.9896,129.9816 194.0736,129.8472 194.1408,129.7296 C196.4424,129.2424 198.744,128.7384 201.2304,128.2176 C201.2304,128.7888 201.2304,129.276 201.2304,129.7632 C201.2304,136.4832 201.2304,143.22 201.2304,149.94 C201.2136,152.5272 201.2136,152.5272 204.3552,152.796 Z M196.98,145.2864 C196.98,143.7408 196.98,142.1784 196.98,140.6328 C196.9632,138.8352 196.1568,137.8608 194.3928,137.5584 C192.444,137.2224 190.8144,138.096 189.9576,140.1792 C188.7144,143.2032 188.6808,146.3112 189.8904,149.3688 C190.5456,151.0152 191.688,152.208 193.536,152.5608 C195.636,152.964 196.98,151.8888 196.98,149.8224 C196.98,148.2936 196.98,146.7984 196.98,145.2864 Z" id="Shape"></path>
                        <path d="M122.6904,187.8408 C119.364,187.8408 116.4408,187.8408 113.5344,187.8408 C113.3328,186.6984 113.3328,186.6312 114.324,186.5136 C115.5672,186.3624 116.0544,185.6568 116.0544,184.4808 C116.0544,178.164 116.0376,171.8472 116.0712,165.5304 C116.0712,163.7832 114.8952,163.716 113.5848,163.6488 C113.3496,162.96 113.2824,162.4728 114.2568,162.3048 C116.1888,161.952 118.0872,161.4984 120.1704,161.0448 C120.1704,164.3376 120.1704,167.5968 120.1704,171.0576 C121.2456,170.352 122.052,169.6968 122.9592,169.2264 C127.2936,167.0592 131.376,169.5456 131.4264,174.384 C131.46,177.5424 131.4432,180.7008 131.4264,183.8592 C131.4264,185.22 131.5104,186.4632 133.3248,186.6144 C133.5768,186.6312 133.7784,187.2696 134.1144,187.7904 C133.4592,187.8576 133.14,187.908 132.8376,187.908 C130.2336,187.908 127.6296,187.908 125.0256,187.908 C124.7568,187.068 124.8408,186.564 125.7648,186.4968 C126.7056,186.4296 127.1592,185.8248 127.1592,184.9344 C127.1424,181.3224 127.1592,177.7104 126.9912,174.1152 C126.924,172.6872 125.8824,171.7128 124.404,171.4776 C122.8584,171.2256 121.5144,171.7464 120.4224,172.8552 C120.2544,173.0232 120.204,173.3592 120.204,173.6112 C120.2208,177.2736 120.2544,180.936 120.288,184.5984 C120.3048,185.6064 120.5736,186.3624 121.7664,186.564 C122.1024,186.6144 122.304,187.2528 122.6904,187.8408 Z" id="Path"></path>
                        <path d="M144.0768,135.7776 C143.724,135.5256 143.1528,135.3576 143.0352,135.0216 C141.8424,131.3424 139.3056,129.6288 135.492,129.7632 C131.2584,129.9144 128.3016,131.9976 127.008,136.0968 C125.412,141.12 125.6976,146.0424 128.772,150.4944 C131.8296,154.9128 139.356,155.6184 142.6488,150.0576 C143.0688,149.352 143.4216,148.596 143.892,147.9408 C144.0432,147.7224 144.4632,147.672 144.7656,147.5376 C144.9,147.84 145.1856,148.176 145.1184,148.4112 C144.6144,150.2592 144.06,152.0904 143.472,153.9216 C143.388,154.1736 143.1024,154.4928 142.8504,154.56 C137.6592,155.9208 132.5016,156.408 127.4952,153.8376 C122.9424,151.4856 120.3216,146.1096 120.8088,141.0192 C121.5144,133.5768 127.26,128.6712 134.2656,128.2848 C137.088,128.1168 139.9608,128.6712 142.8168,128.9232 C143.472,128.9736 143.7912,129.3264 143.8416,130.0824 C143.9592,131.8968 144.228,133.6944 144.4464,135.492 C144.3288,135.576 144.2112,135.6768 144.0768,135.7776 Z" id="Path"></path>
                        <path d="M233.2512,155.0304 C232.8816,154.14 233.0832,153.6696 233.9568,153.6192 C235.5192,153.552 235.9056,152.6112 235.8888,151.2336 C235.8384,147.5712 235.8384,143.9088 235.872,140.2464 C235.8888,139.0872 235.4856,138.4488 234.2928,138.2808 C233.9568,138.2304 233.6712,137.8272 233.352,137.592 C233.6376,137.3904 233.8896,137.0712 234.2256,136.9872 C236.1072,136.5 238.0056,136.0632 240.0384,135.576 C240.0888,136.5168 240.1224,137.3736 240.1728,138.4656 C241.08,137.844 241.8528,137.3232 242.6088,136.7856 C244.4736,135.4752 246.456,135.0888 248.5392,136.1808 C250.5552,137.2392 251.1936,139.1376 251.2272,141.2376 C251.2944,144.6648 251.2608,148.1088 251.2272,151.536 C251.2104,152.6952 251.496,153.4848 252.8064,153.6528 C253.1256,153.7032 253.3944,154.1736 253.68,154.4424 C253.344,154.644 253.008,154.9968 252.672,155.0136 C250.2528,155.064 247.8168,155.064 245.3976,155.0304 C245.112,155.0304 244.8264,154.6608 244.524,154.476 C244.7592,154.2072 244.9776,153.72 245.2464,153.7032 C246.8088,153.5688 247.0104,152.544 246.9936,151.284 C246.9768,148.3944 247.0272,145.5216 246.9936,142.632 C246.9768,141.1368 246.8088,139.6248 245.2296,138.8856 C243.7008,138.18 242.2392,138.6168 241.0128,139.6416 C240.5592,140.028 240.156,140.7336 240.1392,141.3216 C240.0552,144.6144 240.0888,147.9072 240.1056,151.2168 C240.1056,152.4096 240.1896,153.552 241.7856,153.72 C242.0208,153.7368 242.3568,154.1904 242.3568,154.4424 C242.3568,154.644 241.9368,155.0304 241.7016,155.0304 C238.8624,155.0472 236.04,155.0304 233.2512,155.0304 Z" id="Path"></path>
                        <path d="M0.1848,147.9072 C0.672,147.7392 1.008,147.6216 1.3776,147.4872 C1.4952,147.672 1.6128,147.8064 1.7136,147.9576 C2.6544,149.4024 3.4776,150.9648 4.5864,152.2584 C5.7288,153.5688 7.3416,154.2408 9.156,153.9888 C11.0376,153.72 12.2136,152.5776 12.6504,150.7632 C13.1208,148.848 12.7176,147.0672 11.1384,145.8072 C10.08,144.9672 8.82,144.3624 7.6608,143.6568 C6.4848,142.9512 5.2584,142.3296 4.1664,141.5232 C1.7472,139.7256 0.7392,137.2896 1.3944,134.2992 C2.1,131.1576 4.2168,129.36 7.224,128.5872 C9.744,127.932 12.2136,128.352 14.616,129.2256 C14.9016,129.3264 15.1872,129.7632 15.2544,130.0992 C15.54,131.628 15.7416,133.1568 15.9936,134.7696 C15.6072,134.8872 15.2376,135.0216 14.8176,135.156 C14.364,134.1984 13.9944,133.2576 13.4904,132.4176 C12.4992,130.7376 10.9704,129.8808 9.0384,129.9984 C7.4256,130.0992 6.1488,130.8888 5.5776,132.4848 C4.9896,134.1648 5.0904,135.8448 6.5016,137.0208 C7.7112,138.0288 9.1728,138.7512 10.5336,139.5576 C11.7432,140.28 13.104,140.8176 14.1792,141.6912 C18.648,145.2528 17.808,152.1576 12.6672,154.6608 C9.0552,156.408 5.4768,155.8536 1.9488,154.3584 C1.6128,154.224 1.3272,153.7032 1.2432,153.3168 C0.84,151.536 0.5376,149.772 0.1848,147.9072 Z" id="Path"></path>
                        <path d="M73.332,135.7776 C73.332,136.6008 73.332,137.3232 73.332,138.0456 C73.332,141.9432 73.332,145.824 73.332,149.7216 C73.332,152.5272 73.332,152.5272 76.1376,152.8128 C76.3056,153.552 76.2888,153.9888 75.264,154.14 C73.6512,154.3752 72.072,154.8792 70.476,155.2656 C70.0896,155.3496 69.7032,155.4168 69.1152,155.5344 C69.1152,154.4928 69.1152,153.6192 69.1152,152.4936 C68.0904,153.2328 67.284,153.804 66.4944,154.3752 C64.6632,155.6856 62.6808,155.9376 60.6816,154.9296 C58.716,153.9384 58.0608,152.1072 58.0608,150.0072 C58.0608,146.7648 58.0608,143.5056 58.0608,140.2632 C58.0608,139.02 57.8928,137.9784 56.3304,137.7936 C56.0112,137.76 55.7592,137.172 55.3224,136.6344 C57.8592,136.3152 59.976,136.0632 62.2104,135.7776 C62.2104,139.8264 62.1936,143.7912 62.2272,147.7728 C62.2272,148.6296 62.3112,149.52 62.5632,150.3432 C63.0336,151.956 64.4616,152.712 66.108,152.3592 C68.292,151.9056 69.0984,150.9312 69.0984,148.7472 C69.0984,145.8576 69.048,142.9848 69.1152,140.0952 C69.1488,138.7008 68.7288,137.9448 67.2672,137.7936 C66.8808,137.76 66.5448,137.2392 66.192,136.9368 C66.276,136.8192 66.3432,136.7016 66.4272,136.584 C68.6616,136.332 70.9128,136.0632 73.332,135.7776 Z" id="Path"></path>
                        <path d="M179.508,188.4456 C176.0136,188.2776 173.3592,186.8328 171.7128,183.6912 C169.6464,179.76 170.3016,174.4008 173.3256,171.3096 C175.896,168.6888 179.0208,167.7144 182.5992,168.8904 C186.1272,170.0496 187.9584,172.7208 188.5632,176.2488 C188.9664,178.584 188.748,180.9192 187.7232,183.0864 C186.0936,186.564 183.3552,188.3784 179.508,188.4456 Z M175.308,176.7024 C175.5432,180.2472 175.6944,182.9184 177.324,185.1696 C179.0208,187.488 181.7088,187.2696 182.8344,184.6488 C183.3888,183.372 183.6744,181.944 183.792,180.5496 C184.044,177.576 183.96,174.5688 182.3136,171.9312 C180.7344,169.3944 177.828,169.4784 176.5848,172.1664 C175.8288,173.8296 175.5768,175.728 175.308,176.7024 Z" id="Shape"></path>
                        <path d="M259.5936,185.3376 C259.392,185.724 259.2744,186.228 258.9552,186.4632 C258.2664,186.9672 257.46,187.3368 256.704,187.7736 C255.0072,188.748 253.8144,188.412 252.9072,186.6816 C252.7896,186.4464 252.672,186.1944 252.504,185.8584 C251.3784,186.564 250.3704,187.4208 249.228,187.8576 C248.3376,188.2104 247.1448,188.3616 246.2712,188.076 C244.1544,187.3704 243.1632,185.6232 242.9952,183.456 C242.8104,181.2048 243.8184,179.5752 245.8512,178.6176 C247.716,177.744 249.5808,176.904 251.4792,176.1144 C252.336,175.7616 252.7056,175.2576 252.5544,174.3336 C252.3192,172.9392 252.2856,171.4272 250.6224,170.856 C249.5808,170.5032 248.5392,170.6712 247.9344,171.612 C247.4304,172.3848 247.1112,173.3256 246.8424,174.2328 C246.4728,175.392 245.8008,175.8288 244.7088,175.4592 C243.7008,175.1232 243.0288,173.9472 243.432,173.0736 C243.7008,172.5192 244.104,171.8976 244.6248,171.612 C246.6576,170.52 248.6904,169.3272 250.8576,168.6048 C253.596,167.7144 256.3848,169.932 256.452,172.8216 C256.5192,175.7448 256.4688,178.6848 256.4856,181.608 C256.4856,182.028 256.4688,182.4312 256.4856,182.8512 C256.536,185.2032 256.9896,185.5728 259.5936,185.3376 Z M252.5712,177.1896 C251.2104,177.9456 250.0848,178.5 249.0264,179.172 C247.2792,180.2976 246.8928,182.784 248.1192,184.4472 C248.724,185.2536 249.5472,185.6736 250.488,185.2872 C251.4624,184.9008 252.6048,184.5816 252.5712,183.1368 C252.5376,181.2888 252.5712,179.424 252.5712,177.1896 Z" id="Shape"></path>
                        <path d="M78.2712,185.8248 C77.2128,186.5136 76.3056,187.1352 75.3816,187.7232 C73.6008,188.832 71.652,188.5128 70.224,186.9168 C68.0736,184.5144 67.9896,179.9952 72.0216,178.4328 C73.8024,177.744 75.516,176.8536 77.28,176.1312 C78.1872,175.7616 78.372,175.1232 78.288,174.3 C78.1536,172.9728 78.12,171.4776 76.608,170.9904 C75.852,170.7552 74.6592,170.856 74.1048,171.3264 C73.3824,171.948 73.0464,173.0568 72.66,173.9976 C72.3912,174.6696 72.3744,175.6272 71.4,175.476 C70.6776,175.3584 69.7536,174.9888 69.4008,174.4176 C69.1152,173.9472 69.2664,172.7376 69.6696,172.3848 C70.98,171.276 72.4248,170.2848 73.9536,169.4952 C75.432,168.7224 77.0112,168.1176 78.8088,168.6216 C80.8584,169.1928 82.2192,170.7048 82.2528,172.8384 C82.3032,176.1816 82.2864,179.5248 82.3032,182.8512 C82.3032,183.3384 82.3872,183.8424 82.488,184.3296 C82.6896,185.2872 83.244,185.5896 84.2016,185.2872 C84.504,185.1864 84.8904,185.3712 85.2264,185.4384 C85.0416,185.7912 84.9576,186.2784 84.672,186.48 C83.9328,187.0008 83.1096,187.404 82.3032,187.8576 C80.8752,188.664 79.716,188.3784 78.8424,186.984 C78.6408,186.648 78.4896,186.2616 78.2712,185.8248 Z M78.288,177.1728 C76.7928,178.0632 75.4656,178.6848 74.3568,179.5584 C72.8448,180.7512 72.744,183.4392 74.172,184.6824 C74.7096,185.1528 75.768,185.3376 76.4736,185.1864 C77.3976,184.9848 78.3552,184.5144 78.3048,183.1704 C78.2376,181.3056 78.288,179.4408 78.288,177.1728 Z" id="Shape"></path>
                        <path d="M44.3352,161.1456 C44.1504,160.6248 44.016,160.2888 43.8984,159.9864 C43.9992,159.8688 44.0496,159.7848 44.1168,159.7344 C47.4936,157.9704 48.3336,154.812 48.4176,151.4184 C48.552,145.4376 48.5016,139.44 48.468,133.4592 C48.4512,131.5608 47.8128,130.9056 45.948,130.7208 C45.0408,130.6368 44.688,130.3512 45.024,129.3936 C48.7368,129.3936 52.4832,129.3936 56.28,129.3936 C56.5488,130.2336 56.3976,130.6704 55.4064,130.704 C54.1968,130.7544 53.4576,131.4096 53.34,132.6528 C53.256,133.5096 53.1384,134.3832 53.1384,135.24 C53.1216,139.9944 53.1888,144.7488 53.1048,149.5032 C53.0208,155.1984 50.6016,158.76 45.696,160.6752 C45.2928,160.86 44.8728,160.9776 44.3352,161.1456 Z" id="Path"></path>
                        <path d="M56.8848,177.3912 C56.9184,180.348 57.5904,182.8008 60.1608,184.2456 C62.6808,185.6568 64.9992,184.9848 67.0992,183.2208 C68.0232,183.7248 67.6368,184.2456 67.2168,184.7664 C65.3856,187.1184 63.1512,188.8152 59.9928,188.3616 C56.616,187.8744 54.3984,185.892 53.34,182.616 C51.7272,177.6768 53.7768,171.78 58.0104,169.4448 C60.2112,168.2352 62.5128,167.8824 64.7808,169.2768 C66.9312,170.604 67.9224,172.6032 67.872,175.1568 C67.8552,176.2152 67.452,176.5848 66.4104,176.6352 C63.8064,176.7528 61.2192,176.988 58.6152,177.1728 C58.0776,177.2232 57.54,177.3072 56.8848,177.3912 Z M56.784,175.3752 C58.8,175.3752 60.3792,175.3752 61.9584,175.3752 C63.756,175.3584 63.9576,175.1232 63.6048,173.3592 C63.4872,172.788 63.2688,172.2168 62.9832,171.7128 C61.8576,169.8312 59.892,169.6464 58.632,171.4272 C57.8592,172.536 57.456,173.9136 56.784,175.3752 Z" id="Shape"></path>
                        <path d="M100.6656,144.4968 C100.6992,147.2856 101.3208,149.7552 103.8408,151.2672 C106.3944,152.8128 108.7464,152.1072 110.8968,150.3264 C111.8208,150.78 111.4512,151.3344 111.048,151.8552 C109.1496,154.2912 106.8312,155.9376 103.5552,155.4168 C100.4472,154.9128 98.3976,153.048 97.3056,150.1248 C95.4072,145.1016 97.4736,138.9192 101.9088,136.5 C104.076,135.324 106.3608,135.0552 108.5616,136.3656 C110.7288,137.6592 111.6864,139.6752 111.7032,142.212 C111.7032,143.2872 111.2832,143.6904 110.292,143.7576 C107.6544,143.9256 105.0168,144.1272 102.3624,144.312 C101.808,144.3624 101.2872,144.4296 100.6656,144.4968 Z M100.9176,142.4976 C102.4464,142.4976 103.908,142.4976 105.3696,142.4976 C107.604,142.4976 108.0072,141.9432 107.2344,139.776 C107.0832,139.356 106.8648,138.936 106.6128,138.5664 C105.5376,137.0208 103.9752,136.8696 102.6648,138.1968 C101.5392,139.3728 101.0352,140.8008 100.9176,142.4976 Z" id="Shape"></path>
                        <path d="M222.348,144.48 C222.2976,147.3024 222.9528,149.6544 225.3048,151.1664 C227.9088,152.8464 230.3616,152.1072 232.6296,150.2592 C232.7472,150.3096 232.848,150.3768 232.9656,150.4272 C232.8648,150.8976 232.932,151.4856 232.6632,151.8216 C230.7312,154.2912 228.3792,156.0048 225.036,155.3832 C221.844,154.7952 219.7944,152.8128 218.7696,149.7384 C217.0896,144.732 219.24,138.768 223.6416,136.4328 C225.8256,135.2736 228.1104,135.0552 230.2776,136.416 C232.3608,137.7264 233.3352,139.7256 233.3352,142.1952 C233.3352,143.1192 233.016,143.6568 232.008,143.7072 C229.32,143.8752 226.632,144.0936 223.944,144.2952 C223.4568,144.3624 222.9696,144.4128 222.348,144.48 Z M222.1464,142.4976 C224.2968,142.4976 225.9264,142.4976 227.556,142.4976 C229.0848,142.4976 229.404,142.0944 229.0512,140.5824 C228.9168,140.0112 228.7488,139.44 228.4632,138.936 C227.3208,136.9032 225.3384,136.7016 223.9944,138.6 C223.2552,139.6752 222.852,140.9856 222.1464,142.4976 Z" id="Shape"></path>
                        <path d="M37.8504,183.3552 C37.7496,183.8088 37.7832,184.3632 37.5144,184.6992 C35.616,187.1856 33.2808,188.9328 29.9376,188.3112 C26.4432,187.656 24.3264,185.4384 23.4696,182.028 C22.2768,177.3744 23.9904,172.3008 27.636,169.848 C29.7528,168.4368 32.0712,167.832 34.4904,168.9912 C36.7752,170.0832 37.9512,172.0152 38.1528,174.5352 C38.2872,176.1984 38.052,176.5176 36.3552,176.6688 C33.9024,176.8704 31.4496,177.0216 28.98,177.2064 C28.392,177.2568 27.804,177.3072 27.1152,177.3744 C27.1824,180.2304 27.7872,182.7336 30.3744,184.2288 C32.8776,185.6736 35.196,185.0016 37.3296,183.2712 C37.5312,183.2712 37.6992,183.3216 37.8504,183.3552 Z M27.0648,175.3752 C29.064,175.3752 30.6768,175.3752 32.2896,175.3752 C33.9696,175.3752 34.1208,175.2408 33.9192,173.5944 C33.8352,172.9896 33.6168,172.3512 33.3144,171.8136 C32.1888,169.8144 30.1224,169.6296 28.8288,171.528 C28.0896,172.6032 27.72,173.9136 27.0648,175.3752 Z" id="Shape"></path>
                        <path d="M266.9016,140.7 C266.1288,141.1368 265.692,141.1032 265.2888,140.3136 C264.8856,139.5072 264.3312,138.7512 263.6928,138.1296 C262.4832,136.9536 260.8536,136.9872 259.9296,138.0792 C258.9552,139.2384 259.1568,140.8848 260.5008,141.9432 C261.1056,142.4136 261.828,142.7328 262.5168,143.1024 C263.2056,143.472 263.928,143.7576 264.5832,144.1608 C267.1368,145.74 268.1952,147.9912 267.624,150.6288 C267.0696,153.1488 264.8688,155.2488 262.1136,155.3832 C260.4336,155.4672 258.72,155.0304 257.04,154.6776 C256.0152,154.4592 255.4776,153.636 255.4104,152.5608 C255.3096,151.3008 255.192,150.0408 255.0912,148.7808 C255.2424,148.68 255.3768,148.596 255.528,148.4952 C255.8472,148.8144 256.2168,149.1 256.4856,149.4696 C257.3424,150.6288 257.9976,151.9896 259.0224,152.964 C260.4336,154.2912 262.2816,154.1064 263.2728,152.8296 C264.2808,151.536 264.0624,149.772 262.6176,148.5792 C261.9288,148.008 261.072,147.6216 260.2656,147.2016 C258.2832,146.1768 256.3848,145.0512 255.9312,142.6152 C255.1752,138.5832 258.3336,135.3072 262.7016,135.5592 C262.9368,135.576 263.1552,135.6264 263.3904,135.6432 C265.8936,135.9288 266.0616,136.0632 266.5656,138.516 C266.6832,139.2048 266.784,139.9272 266.9016,140.7 Z" id="Path"></path>
                        <path d="M259.224,163.4976 C259.56,163.044 259.7616,162.456 260.0808,162.372 C262.1136,161.868 264.1632,161.4816 266.3304,161.028 C266.3304,161.5656 266.3304,162.0696 266.3304,162.5568 C266.3304,169.6968 266.3304,176.82 266.3304,183.96 C266.3304,185.9592 266.4312,186.0432 268.3464,186.5472 C268.6992,186.648 268.9512,187.1688 269.2536,187.488 C269.1864,187.5888 269.1024,187.6896 269.0184,187.7904 C265.8432,187.7904 262.668,187.7904 259.4592,187.7904 C259.1904,187.0512 259.2912,186.5472 260.2152,186.4968 C261.6096,186.4296 262.08,185.64 262.08,184.3296 C262.0632,178.1976 262.0968,172.0656 262.08,165.9336 C262.08,164.0856 262.0296,164.052 259.224,163.4976 Z" id="Path"></path>
                        <path d="M190.1928,181.4064 C190.5288,181.7088 190.9152,181.9776 191.184,182.3304 C192.108,183.54 192.8304,184.968 193.9392,185.9928 C195.2664,187.2192 196.98,186.9504 197.9544,185.7408 C198.8784,184.5816 198.744,182.7336 197.5176,181.6416 C196.8456,181.0368 195.9888,180.6504 195.216,180.18 C194.3928,179.6928 193.5024,179.2896 192.7464,178.7184 C190.848,177.2904 190.092,175.392 190.6632,173.0568 C191.2512,170.6376 192.8472,169.2264 195.2328,168.6552 C195.2832,168.6384 195.3168,168.6384 195.3672,168.6384 C200.7936,168.1008 201.18,168.9072 201.516,173.6448 C200.8944,174.0648 200.5248,174.0144 200.0712,173.2416 C199.5336,172.3176 198.8448,171.4104 198.0216,170.7216 C196.9464,169.8312 195.468,170.016 194.6784,170.9232 C193.8048,171.9144 193.8048,173.376 194.8296,174.384 C195.4008,174.9552 196.1232,175.3752 196.8288,175.7952 C197.5008,176.1816 198.24,176.4336 198.912,176.82 C201.8184,178.4328 202.9608,180.768 202.3056,183.7416 C201.7512,186.228 199.1472,188.244 196.1904,188.412 C195.636,188.4456 195.0816,188.4456 194.544,188.412 C191.2848,188.1768 190.092,186.9504 189.9576,183.7416 C189.924,183.1032 189.8904,182.4648 189.8568,181.8264 C189.9744,181.6752 190.0752,181.5408 190.1928,181.4064 Z" id="Path"></path>
                        <path d="M39.4632,181.4064 C39.7656,181.692 40.1184,181.944 40.3704,182.28 C41.1768,183.4224 41.7816,184.7496 42.756,185.724 C44.184,187.1352 46.0824,187.0344 47.124,185.7744 C48.2328,184.4304 47.88,182.364 46.2504,181.2384 C45.2928,180.5664 44.1672,180.1128 43.1424,179.5416 C40.1688,177.8448 39.0936,175.476 39.984,172.6032 C40.8072,169.932 43.7472,168.1344 46.8048,168.4368 C49.644,168.7056 51.0216,170.3688 50.7528,173.2416 C50.736,173.4768 50.4168,173.8464 50.232,173.8464 C49.9464,173.8464 49.5768,173.6616 49.4088,173.4264 C48.8208,172.6872 48.384,171.7968 47.7288,171.1248 C46.4856,169.8816 44.772,169.8816 43.848,170.9904 C42.84,172.2 43.0752,173.88 44.5536,174.9216 C45.444,175.5432 46.4688,175.9464 47.46,176.4336 C51.4248,178.3656 52.836,182.1624 50.82,185.4216 C49.3416,187.8072 45.8472,189 42.6552,188.1936 C39.9168,187.5048 39.3624,186.8832 39.1776,184.128 C39.1272,183.3216 39.1608,182.4984 39.1608,181.6752 C39.2616,181.5744 39.3624,181.4904 39.4632,181.4064 Z" id="Path"></path>
                        <path d="M237.5016,163.0944 C237.5016,165.2784 237.5016,167.0424 237.5016,168.9576 C238.6944,168.9576 239.7864,168.8736 240.8616,168.9912 C241.2312,169.0248 241.8864,169.6464 241.836,169.848 C241.7016,170.3016 241.2816,170.9568 240.8952,171.0072 C239.8368,171.1752 238.728,171.0576 237.552,171.0576 C237.552,175.1064 237.4176,179.0208 237.6024,182.9352 C237.72,185.3544 239.0976,186.06 241.3824,185.3376 C242.256,185.052 242.256,185.052 242.7264,186.0768 C241.3824,186.7992 240.072,187.6392 238.6608,188.2272 C236.2248,189.2352 233.5368,187.3704 233.4192,184.5144 C233.268,180.8184 233.3184,177.1224 233.2848,173.4096 C233.2848,172.6872 233.2848,171.948 233.2848,171.108 C232.3944,171.108 231.6048,171.108 230.664,171.108 C230.664,170.352 230.664,169.7136 230.664,168.9912 C231.5208,168.9576 232.3272,168.9072 233.1672,168.8736 C233.2008,168.5544 233.3016,168.2856 233.268,168.0336 C233.0832,166.8912 233.5032,166.2024 234.5784,165.6816 C235.2336,165.3624 235.6872,164.6232 236.2416,164.1024 C236.5272,163.8168 236.88,163.5648 237.5016,163.0944 Z" id="Path"></path>
                        <path d="M95.6256,187.8912 C92.6184,187.8912 89.6952,187.8912 86.772,187.8912 C86.5032,187.8912 86.2344,187.8744 85.932,187.8576 C85.6632,187.0008 85.8144,186.5472 86.7888,186.48 C87.8808,186.396 88.3344,185.6736 88.3344,184.5984 C88.3176,180.7512 88.3008,176.9208 88.3512,173.0736 C88.3848,171.2928 87.108,171.2088 85.428,171.0072 C85.932,170.4864 86.1504,170.0328 86.4696,169.9488 C88.4352,169.428 90.4176,168.9912 92.5344,168.4872 C92.5344,169.7976 92.5344,171.0576 92.5344,172.5528 C93.576,171.3096 94.3488,170.1504 95.34,169.2096 C96.9864,167.664 99.204,168.336 99.7248,170.436 C99.9936,171.5112 99.3048,173.1576 98.28,173.5608 C97.8768,173.7288 97.188,173.6448 96.8184,173.3928 C94.836,172.0656 92.7024,172.9896 92.6184,175.4256 C92.5008,178.5672 92.6352,181.7256 92.6856,184.884 C92.7024,186.1608 93.66,186.4296 94.668,186.4968 C95.5416,186.5304 95.9616,186.8328 95.6256,187.8912 Z" id="Path"></path>
                        <path d="M20.0592,138.1296 C19.068,138.1296 18.2616,138.1296 17.3712,138.1296 C17.3712,137.4576 17.3712,136.8864 17.3712,136.164 C18.2112,136.0968 19.0512,136.0464 19.9584,135.9792 C19.992,135.6096 20.076,135.2904 20.0424,135.0048 C19.908,133.98 20.2608,133.3584 21.2352,132.8544 C21.9744,132.4848 22.4952,131.6952 23.1168,131.0904 C23.3856,130.8384 23.6544,130.6032 24.2256,130.0992 C24.2256,132.3 24.2256,134.0976 24.2256,136.0632 C25.4688,136.0632 26.544,135.996 27.6192,136.0968 C28.0056,136.1304 28.56,136.5672 28.644,136.92 C28.7952,137.6088 28.476,138.1464 27.5856,138.1128 C26.544,138.0792 25.5024,138.1128 24.276,138.1128 C24.276,140.9016 24.2592,143.5896 24.276,146.2608 C24.276,147.588 24.192,148.932 24.3936,150.2256 C24.7464,152.5272 25.9224,153.1824 28.0896,152.3928 C28.8792,152.1072 29.2824,152.1576 29.484,153.4008 C27.7872,154.056 26.0568,155.0976 24.2088,155.3664 C21.8904,155.7024 20.2608,154.1064 20.1768,151.7208 C20.0256,148.0248 20.0592,144.312 20.0256,140.5992 C20.0424,139.86 20.0592,139.0872 20.0592,138.1296 Z" id="Path"></path>
                        <path d="M113.904,183.0528 C113.8536,183.5064 113.9544,184.0776 113.736,184.4304 C111.6528,187.7232 108.6288,189.0168 105.252,188.16 C101.8416,187.2864 99.3048,184.1448 99.0528,180.4824 C98.616,174.1488 102.4128,169.3104 108.696,168.5376 C109.9896,168.3696 111.4512,168.9744 112.7448,169.428 C113.148,169.5792 113.5848,170.4864 113.5008,170.9736 C113.3832,171.6624 112.8624,172.3176 112.392,172.8888 C112.2744,173.0232 111.636,172.8552 111.3168,172.6704 C110.6448,172.284 110.0904,171.7128 109.4016,171.3432 C107.1336,170.1336 104.9664,170.8224 103.9584,173.1744 C102.648,176.2488 102.7824,179.3568 104.5464,182.2296 C106.4112,185.2872 109.704,185.808 112.5264,183.6408 C112.812,183.4224 113.0976,183.204 113.3832,182.9688 C113.568,183.0024 113.736,183.0192 113.904,183.0528 Z" id="Path"></path>
                        <path d="M211.3944,135.5592 C211.3944,136.92 211.3944,138.1464 211.3944,139.3896 C211.4784,139.44 211.5624,139.4904 211.6464,139.5408 C211.9488,139.104 212.2344,138.6336 212.5704,138.2136 C213.1416,137.508 213.696,136.7688 214.368,136.164 C215.1576,135.4416 216.2328,135.0552 217.1232,135.744 C217.812,136.2648 218.6016,137.256 218.5344,137.9784 C218.4672,138.9192 217.6776,139.86 217.056,140.7 C216.9216,140.8848 216.0816,140.7672 215.7288,140.532 C213.6792,139.2216 211.5792,140.0616 211.4616,142.4808 C211.3272,145.488 211.4616,148.512 211.4952,151.536 C211.512,152.8632 212.1672,153.5352 213.5112,153.6024 C214.284,153.636 215.0232,153.804 214.536,154.98 C211.3272,154.98 208.1016,154.98 204.8592,154.98 C204.456,154.1904 204.6744,153.7032 205.5312,153.6192 C206.9592,153.468 207.2784,152.544 207.2784,151.3008 C207.2616,147.7224 207.2448,144.1608 207.2952,140.5824 C207.312,139.2552 206.976,138.3648 205.464,138.2304 C205.1952,138.2136 204.96,137.8608 204.708,137.6592 C204.9264,137.4408 205.128,137.088 205.3968,137.0208 C207.3288,136.5168 209.2776,136.08 211.3944,135.5592 Z" id="Path"></path>
                        <path d="M231.7728,187.8576 C228.6312,187.8576 225.4896,187.8576 222.348,187.8576 C222.1296,186.6984 222.1296,186.648 223.1376,186.5304 C224.448,186.3792 224.9184,185.6736 224.9016,184.4136 C224.868,180.852 224.8848,177.2904 224.8848,173.712 C224.8848,171.528 224.7504,171.3936 222.0624,170.9736 C222.5664,170.4696 222.8184,169.9656 223.188,169.8816 C225.12,169.3608 227.0688,168.9576 229.152,168.4704 C229.1688,168.924 229.2192,169.3944 229.2192,169.8816 C229.2192,174.636 229.2528,179.3904 229.2024,184.1448 C229.1856,185.5392 229.5552,186.4296 231.1008,186.5808 C231.4704,186.6144 231.7896,187.1856 232.1424,187.5048 C232.008,187.5888 231.8904,187.7232 231.7728,187.8576 Z" id="Path"></path>
                        <path d="M173.6952,211.1928 C172.2336,211.9152 172.8048,213.5784 172.116,214.5864 C171.444,215.5776 170.3688,216.3 169.344,217.2576 C169.8648,217.644 170.52,218.1144 171.1416,218.6184 C172.8384,219.9792 172.6872,221.7432 170.6544,222.5328 C169.6968,222.9024 168.5376,222.936 167.496,222.8184 C166.9752,222.7512 166.2024,222.0624 166.1352,221.5752 C166.0512,221.004 166.5216,220.2648 166.8912,219.7104 C167.16,219.324 167.664,219.1056 168.168,218.7528 C167.832,218.0976 167.3616,217.3584 168.4872,216.9552 C166.992,215.4264 166.8072,214.3008 167.7144,212.7048 C168.504,211.3104 169.8648,210.84 171.5784,211.1928 C172.2504,211.3104 172.9896,211.1928 173.6952,211.1928 Z M169.5288,222.4824 C170.016,221.9952 170.5032,221.508 170.9904,221.0208 C170.3016,220.3992 169.6128,219.7944 168.9408,219.1728 C168.4872,219.7272 167.748,220.248 167.6472,220.8696 C167.496,221.8944 168.42,222.1464 169.5288,222.4824 Z M168.4536,214.2168 C168.8904,214.8888 169.2264,215.4096 169.5624,215.9304 C169.9656,215.4768 170.604,215.0736 170.7048,214.5696 C170.856,213.7296 170.6712,212.8392 170.5704,211.9656 C170.5536,211.8816 169.932,211.7472 169.8648,211.8312 C169.3944,212.5536 168.9744,213.3264 168.4536,214.2168 Z" id="Shape"></path>
                        <path d="M88.6536,211.1928 C88.284,212.2008 88.0824,213.4272 87.444,214.3512 C86.7216,215.4264 85.6464,216.2496 84.6048,217.308 C84.9408,217.56 85.6128,217.8792 86.0496,218.4 C86.6208,219.0888 87.2928,219.912 87.3936,220.7352 C87.528,221.8776 86.4192,222.4656 85.4448,222.7176 C84.6048,222.936 83.6304,223.02 82.7904,222.8352 C82.1856,222.7008 81.3624,222.0456 81.2952,221.5248 C81.228,220.92 81.7824,220.164 82.2024,219.576 C82.4376,219.24 82.9416,219.072 83.0928,218.9712 C83.2104,218.1144 83.2944,217.4592 83.3952,216.6528 C82.2696,215.544 82.0512,214.1664 82.908,212.688 C83.748,211.26 85.0584,210.7896 86.772,211.1592 C87.4944,211.3104 88.2672,211.1928 88.6536,211.1928 Z M84.9744,222.2976 C85.2768,221.9952 85.7304,221.5416 86.184,221.088 C85.4784,220.4664 84.7896,219.828 84.084,219.2064 C83.664,219.7272 82.9584,220.2312 82.8744,220.8024 C82.7232,221.9112 83.6808,222.1464 84.9744,222.2976 Z M86.2344,213.024 C86.0832,212.772 85.7808,212.2848 85.4784,211.7976 C85.0416,212.2344 84.5544,212.6208 84.2016,213.108 C84.0168,213.3768 83.916,213.8304 84,214.1496 C84.1512,214.7544 84.4536,215.3424 84.6888,215.9304 C85.1256,215.4768 85.6296,215.0904 85.9656,214.5696 C86.184,214.2672 86.1168,213.7968 86.2344,213.024 Z" id="Shape"></path>
                        <path d="M204.9936,210.8736 C205.8672,207.9672 205.8504,207.7656 204.2376,207.1776 C205.38,206.8248 206.2368,206.556 207.396,206.2032 C206.7576,210.0504 206.1696,213.6624 205.548,217.4088 C206.0016,217.2576 206.304,217.1568 206.6232,217.056 C206.7072,217.1904 206.7744,217.308 206.8584,217.4424 C206.0184,218.0304 205.1784,218.6016 204.0528,219.3912 C204.0528,218.1816 204.0528,217.4256 204.0528,216.5016 C203.4312,217.14 202.9272,217.812 202.272,218.316 C201.8352,218.652 201.1296,219.0216 200.7264,218.8704 C200.3232,218.7192 200.004,217.9632 199.92,217.4424 C199.4832,214.2336 201.7344,211.3272 204.9936,210.8736 Z M201.8184,217.6272 C203.8512,216.468 204.9936,214.0992 204.6408,211.5456 C203.9184,211.9824 203.0952,212.2008 202.776,212.7216 C201.8352,214.1664 201.3144,215.7792 201.8184,217.6272 Z" id="Shape"></path>
                        <path d="M66.8808,217.476 C67.3344,217.2912 67.6536,217.1568 67.956,217.0224 C68.0232,217.1232 68.0904,217.2408 68.1576,217.3416 C67.4016,218.0304 66.78,218.9376 65.52,218.82 C65.4192,218.8032 65.4024,217.7784 65.3688,217.224 C65.352,217.056 65.436,216.8712 65.4864,216.6864 C64.8984,217.2072 64.344,217.7784 63.7224,218.1984 C63.2184,218.5344 62.3952,219.0384 62.0928,218.8536 C61.6392,218.568 61.32,217.7616 61.2864,217.1568 C61.0848,213.9984 62.8152,211.7808 65.7888,210.8904 C66.2424,210.756 66.4944,209.7312 66.7128,209.076 C66.9984,208.236 67.1328,207.3624 65.8224,207.0432 C66.696,206.7912 67.5696,206.556 68.7288,206.22 C68.1072,210.084 67.5024,213.7128 66.8808,217.476 Z M65.94,211.6632 C65.352,211.932 64.5624,212.0664 64.2264,212.52 C63.1512,214.0152 62.748,215.712 63.1512,217.7784 C65.2344,216.2496 66.0576,214.3512 65.94,211.6632 Z" id="Shape"></path>
                        <path d="M185.7072,213.2928 C186.6144,212.52 187.2864,211.848 188.076,211.3104 C188.412,211.0752 189.0168,210.9408 189.336,211.092 C189.6048,211.2264 189.756,211.8648 189.7056,212.2512 C189.4872,213.9144 189.168,215.5776 188.8656,217.3752 C189.2688,217.2408 189.6048,217.1232 189.924,217.0224 C190.008,217.14 190.092,217.2744 190.1592,217.392 C189.3024,217.98 188.4288,218.5848 187.572,219.1728 C187.4208,219.0552 187.2528,218.9544 187.1016,218.8368 C187.4544,216.72 187.7904,214.5864 188.2104,212.1 C186.648,213.0072 185.8416,214.116 185.3376,215.4264 C185.136,215.964 185.052,216.5856 185.0352,217.1736 C185.0184,218.2824 184.5312,218.8536 183.2376,218.8704 C183.5904,216.6696 183.9432,214.4856 184.296,212.3184 C184.4808,211.1928 184.632,210.0672 184.884,208.9584 C185.0688,208.1016 185.3376,207.2952 183.9768,207.0432 C184.8504,206.7912 185.7408,206.5392 186.9,206.2032 C186.4632,208.6728 186.0936,210.8904 185.7072,213.2928 Z" id="Path"></path>
                        <path d="M41.496,207.4632 C43.68,207.4632 45.8472,207.4632 48.2328,207.4632 C48.1152,208.3704 47.9976,209.2104 47.8632,210.336 C46.8552,208.2192 46.452,207.9 44.9904,208.152 C44.6544,208.2192 44.2176,208.6224 44.1336,208.9416 C43.8648,210.084 43.7472,211.26 43.5792,212.436 C45.3096,212.6544 45.6288,213.1416 47.124,211.3272 C46.9224,212.4864 46.7376,213.6456 46.536,214.8216 C46.4184,214.8216 46.3008,214.8216 46.1664,214.8216 C46.0656,214.4184 45.9816,214.0152 45.7968,213.2424 C44.9064,213.5112 43.5792,213.528 43.3608,214.032 C42.3696,216.2496 42.7224,217.7448 44.3352,218.652 C42.588,218.652 41.16,218.652 39.7152,218.652 C41.1936,218.0472 41.1936,216.7368 41.3784,215.4936 C41.664,213.5952 41.9832,211.7136 42.3192,209.832 C42.504,208.9248 42.6216,208.0512 41.496,207.4632 Z" id="Path"></path>
                        <path d="M138.0288,210.4872 C137.8104,209.8656 137.7768,209.5296 137.592,209.3112 C137.1384,208.8072 136.6848,208.1688 136.1136,207.9672 C135.7608,207.8496 134.8368,208.3536 134.7528,208.7232 C134.5848,209.4288 134.6016,210.3528 134.9376,210.9744 C135.2568,211.6128 136.0464,212.0328 136.6344,212.5368 C138.0456,213.7632 138.3816,215.5776 137.4744,217.2408 C136.668,218.7192 134.9544,219.3912 133.224,218.904 C131.8128,218.5008 131.544,217.8456 131.9136,215.0232 C132.2496,215.7624 132.4344,216.1656 132.6024,216.552 C133.2072,217.98 134.316,218.6184 135.3408,218.0976 C136.3824,217.5768 136.7352,215.8464 135.8952,214.7208 C135.3912,214.032 134.6352,213.5448 134.0136,212.94 C132.8208,211.7808 132.552,210.4032 133.224,208.9416 C133.7616,207.7656 135.0216,207.06 136.4832,207.1272 C138.3312,207.2112 138.6336,207.7656 138.0288,210.4872 Z" id="Path"></path>
                        <path d="M105.4704,211.0584 C105.1176,213.1248 104.7816,215.1744 104.412,217.392 C104.8824,217.2408 105.1848,217.1232 105.4872,217.0224 C105.5712,217.14 105.6552,217.2576 105.7392,217.3584 C104.916,217.9632 104.0928,218.5512 102.9336,219.3912 C102.9336,218.1648 102.9336,217.4256 102.9336,216.6528 C102.228,217.308 101.6232,217.9632 100.9008,218.4672 C100.4976,218.7528 99.876,218.9208 99.4224,218.82 C99.204,218.7696 99.0024,217.9632 99.0528,217.5264 C99.2544,215.8968 99.5568,214.3008 99.8424,212.5368 C99.4056,212.7216 99.0528,212.8728 98.7,213.0408 C98.616,212.9232 98.5488,212.7888 98.4648,212.6712 C99.3384,212.0328 100.212,211.4112 101.0856,210.7728 C101.2536,210.8736 101.4216,210.9912 101.5896,211.092 C101.2536,213.2088 100.9344,215.3256 100.5984,217.4424 C102.4464,216.2832 103.488,214.704 103.7064,212.6208 C103.7904,211.6128 104.2104,211.008 105.4704,211.0584 Z" id="Path"></path>
                        <path d="M223.0536,213.6456 C223.8096,212.8056 224.2464,212.1336 224.8512,211.6968 C225.3552,211.344 226.0608,211.2768 226.6656,211.0752 C226.7496,211.7136 226.9848,212.3856 226.9008,213.0072 C226.716,214.4016 226.38,215.7624 226.0608,217.3248 C226.548,217.2072 226.8504,217.1232 227.22,217.0392 C227.22,217.224 227.22,217.3416 227.22,217.4592 C227.22,217.4928 227.1864,217.56 227.1528,217.5768 C226.3464,218.0304 225.54,218.5008 224.7336,218.9544 C224.7168,218.0976 224.5992,217.2408 224.7168,216.4008 C224.8848,215.0736 225.204,213.78 225.5232,212.1672 C222.8352,213.7128 222.2976,215.9976 222.0624,218.5008 C221.592,218.652 221.1216,218.8032 220.4328,219.0216 C220.836,216.8208 221.2056,214.7544 221.6256,212.5032 C221.1384,212.7552 220.8192,212.9064 220.5,213.0744 C220.1136,212.352 221.7768,211.092 223.2048,211.092 C223.1544,211.8144 223.1208,212.52 223.0536,213.6456 Z" id="Path"></path>
                        <path d="M58.884,217.5264 C59.3712,217.2744 59.64,217.1232 59.9088,216.9888 C59.9592,217.1064 60.0432,217.224 60.0096,217.2744 C59.4552,218.316 58.548,218.7864 57.0864,219.1392 C57.4896,216.7704 57.8424,214.6536 58.1952,212.5368 C58.0944,212.4696 57.9936,212.4024 57.876,212.3352 C56.7,213.1752 55.776,214.2336 55.3224,215.6952 C55.1712,216.216 55.104,216.7704 55.0368,217.308 C54.852,218.6352 54.852,218.6352 53.2392,218.904 C53.6088,216.8376 53.9784,214.8048 54.3816,212.5536 C53.8608,212.8056 53.5584,212.94 53.2728,213.0744 C53.1888,212.9568 53.1048,212.8392 53.0208,212.7216 C53.8608,212.0832 54.684,211.428 55.8096,210.5712 C55.9104,211.3776 55.9776,211.7136 55.9944,212.0496 C55.9944,212.4024 55.9272,212.7552 55.8936,213.2088 C56.7168,212.52 57.4056,211.848 58.1952,211.344 C59.304,210.6384 59.8752,210.9576 59.7576,212.2344 C59.64,213.6288 59.2872,215.0064 59.052,216.4008 C58.9848,216.6696 58.9512,216.9888 58.884,217.5264 Z" id="Path"></path>
                        <path d="M160.104,212.3352 C159.5328,212.7552 159.264,212.94 159.012,213.1416 C158.9112,213.0072 158.7936,212.856 158.6928,212.7216 C159.5496,212.0664 160.4064,211.4112 161.2464,210.7728 C161.3808,210.8736 161.5152,210.9912 161.6496,211.092 C161.616,211.7976 161.5824,212.5032 161.5488,213.276 C162.2376,212.6544 162.8592,211.9824 163.6152,211.4616 C164.0184,211.176 164.6064,211.176 165.1272,211.0584 C165.2448,211.5624 165.5304,212.1 165.4632,212.5872 C165.228,214.1496 164.8752,215.712 164.5392,217.4256 C165.0264,217.2744 165.3624,217.1568 165.7152,217.056 C165.7824,217.1736 165.8496,217.2912 165.9168,217.4088 C165.1776,217.9296 164.4888,218.6016 163.6824,218.904 C162.7416,219.2568 162.792,218.4 162.8928,217.812 C163.1448,216.4176 163.464,215.04 163.7496,213.6624 C163.8336,213.276 163.8672,212.8896 163.968,212.0664 C162.4056,213.2592 161.3808,214.3176 160.9776,215.88 C160.86,216.3672 160.692,216.8712 160.7088,217.3584 C160.7424,218.484 160.1376,218.8704 158.9448,218.9376 C159.2808,216.8208 159.6504,214.7544 160.104,212.3352 Z" id="Path"></path>
                        <path d="M76.776,213.1416 C77.7,212.4024 78.3888,211.7304 79.1952,211.2432 C80.1696,210.6552 80.7072,210.9576 80.6232,212.0832 C80.5056,213.4776 80.1864,214.872 79.9512,216.2496 C79.884,216.6024 79.8336,216.9552 79.7328,217.476 C80.1864,217.2576 80.4888,217.1232 80.7912,216.972 C80.8416,217.0896 80.9256,217.2072 80.892,217.2576 C80.3208,218.2656 79.4472,218.7864 77.9688,219.072 C78.372,216.72 78.7248,214.6032 79.0776,212.4864 C78.9768,212.4192 78.8592,212.352 78.7584,212.2848 C77.616,213.0912 76.7424,214.1664 76.2384,215.5272 C76.0368,216.0816 75.9696,216.6864 75.936,217.2744 C75.8856,218.4 75.348,218.904 74.1216,218.8704 C74.4912,216.8208 74.8608,214.788 75.2472,212.5704 C74.7432,212.772 74.4408,212.9064 74.1384,213.024 C74.0544,212.9064 73.9704,212.7888 73.9032,212.6712 C74.7432,212.0328 75.5832,211.4112 76.44,210.7728 C76.5408,210.8736 76.6584,210.9576 76.7592,211.0584 C76.776,211.7136 76.776,212.3688 76.776,213.1416 Z" id="Path"></path>
                        <path d="M30.8952,152.3424 C30.912,150.528 32.0376,149.3184 33.684,149.3352 C35.364,149.352 36.5736,150.696 36.5232,152.4936 C36.4728,154.3416 35.2968,155.5176 33.5496,155.484 C31.9032,155.4336 30.8784,154.224 30.8952,152.3424 Z" id="Path"></path>
                        <path d="M145.7736,211.3104 C145.4376,213.3768 145.1184,215.3256 144.7656,217.4928 C145.3032,217.2576 145.6056,217.1232 145.8912,216.9888 C145.9752,217.1064 146.0592,217.2408 146.1432,217.3584 C145.32,217.9632 144.4968,218.568 143.6736,219.1728 C143.556,219.0888 143.4384,219.0048 143.3208,218.9376 C143.3208,218.2152 143.3208,217.4928 143.3208,216.6192 C142.4136,217.4256 141.708,218.0976 140.952,218.7192 C140.2968,219.24 139.7592,219.0552 139.4736,218.2656 C138.7848,216.3504 140.0952,212.8056 141.8592,211.68 C143.052,210.9072 144.2952,210.756 145.7736,211.3104 Z M144.0768,211.9824 C141.9768,211.7136 140.4648,214.8216 141.3216,217.5936 C143.1024,216.0984 144.0768,214.3008 144.0768,211.9824 Z" id="Shape"></path>
                        <path d="M173.0568,130.5864 C173.0736,132.0984 171.9144,133.392 170.4864,133.4424 C169.0416,133.4928 167.7312,132.1488 167.7312,130.62 C167.748,129.1248 168.9408,127.7976 170.3184,127.7472 C171.7968,127.6968 173.04,128.9904 173.0568,130.5864 Z" id="Path"></path>
                        <path d="M229.5216,163.968 C229.5216,165.648 228.4464,166.7736 226.8504,166.74 C225.3552,166.7232 224.3136,165.564 224.3136,163.9512 C224.3304,162.372 225.4056,161.1792 226.8672,161.1288 C228.3792,161.0952 229.5048,162.3048 229.5216,163.968 Z" id="Path"></path>
                        <path d="M218.82,216.5016 C218.3664,218.1648 216.216,219.4416 214.956,218.8872 C214.5528,218.7024 214.1664,218.2488 213.9984,217.8288 C213.1416,215.6616 214.4352,212.3856 216.5352,211.344 C217.4088,210.9072 218.4336,210.5544 219.1224,211.5456 C219.7944,212.52 219.2568,213.3936 218.4336,214.032 C217.7952,214.5192 217.0896,215.0232 216.3336,215.2752 C215.2416,215.6448 215.3424,216.384 215.628,217.1064 C215.9976,218.0472 216.7536,217.8624 217.4424,217.476 C217.8792,217.2408 218.2488,216.9048 218.82,216.5016 Z M215.4264,214.6368 C215.544,214.704 215.6616,214.788 215.7792,214.8552 C216.6528,214.3848 217.6608,214.0152 217.7952,212.7888 C217.8288,212.4864 217.5768,212.1672 217.4592,211.848 C217.1736,211.9656 216.7536,211.9824 216.636,212.184 C216.1656,212.9736 215.8128,213.8136 215.4264,214.6368 Z" id="Shape"></path>
                        <path d="M117.7512,216.5184 C117.1632,218.0808 115.3992,219.2736 114.156,218.9376 C113.6352,218.8032 113.0304,218.2656 112.8288,217.7616 C111.9552,215.5776 113.2824,212.352 115.4328,211.3104 C116.3064,210.8904 117.3312,210.5712 118.0032,211.6128 C118.6752,212.6376 118.0368,213.4608 117.2304,214.0656 C116.5416,214.5864 115.7856,215.04 114.996,215.3424 C113.9208,215.7456 114.1728,216.5688 114.5088,217.1064 C114.7272,217.4592 115.5672,217.6272 116.0712,217.5264 C116.6088,217.4424 117.0792,216.9552 117.7512,216.5184 Z M114.3072,214.6368 C114.4416,214.7376 114.5928,214.8552 114.7272,214.956 C115.332,214.3848 116.0376,213.8808 116.508,213.2256 C116.6928,212.9568 116.4072,212.3352 116.3232,211.8816 C115.9536,212.0664 115.416,212.1504 115.2312,212.4528 C114.8448,213.1248 114.6096,213.9144 114.3072,214.6368 Z" id="Shape"></path>
                        <path d="M196.2744,207.1272 C197.4504,206.7912 198.3072,206.556 199.4496,206.22 C198.8112,210.0504 198.1896,213.6624 197.5512,217.476 C198.0552,217.2072 198.3912,217.0224 198.7104,216.8544 C198.7776,216.9384 198.8448,217.0392 198.912,217.1232 C198.2736,218.0304 197.484,218.7528 195.8376,219.072 C196.1064,217.224 196.308,215.6112 196.56,213.9816 C196.8288,212.268 197.1312,210.5712 197.4336,208.8744 C197.6688,207.6816 197.6856,207.6816 196.2744,207.1272 Z" id="Path"></path>
                        <path d="M253.7472,136.668 C254.6712,134.8872 253.68,133.7952 252.7056,132.6024 C252.0504,131.796 252.2856,130.8048 253.0752,130.1664 C253.8648,129.528 254.8056,129.5952 255.5952,130.2504 C256.6872,131.1576 256.9224,132.3672 256.5024,133.7112 C256.0656,135.0552 255.2424,136.0296 253.7472,136.668 Z" id="Path"></path>
                        <path d="M150.0072,216.1656 C151.0152,214.8048 152.3256,213.7128 151.9056,211.8816 C151.8552,211.6632 152.4264,211.2936 152.6952,210.9912 C152.9472,211.3104 153.2832,211.5792 153.4008,211.932 C153.4848,212.184 153.3504,212.5704 153.1992,212.8224 C152.0064,214.7544 150.78,216.6864 149.5368,218.5848 C149.4192,218.7696 149.1336,218.8704 148.68,219.156 C148.5456,216.8376 148.4112,214.7208 148.2768,212.436 C147.7392,212.7384 147.42,212.9232 147.084,213.108 C147,213.0072 146.916,212.9064 146.8152,212.7888 C147.5712,212.1 148.3272,211.428 149.0832,210.7392 C149.268,210.8232 149.436,210.8904 149.604,210.9744 C149.772,212.7216 149.8896,214.452 150.0072,216.1656 Z" id="Path"></path>
                        <path d="M97.2552,217.1568 C96.5328,218.2152 95.5248,218.9376 94.2144,218.9376 C93.7272,218.9376 93.0048,218.4504 92.7696,217.9968 C91.644,215.8128 93.324,211.932 95.676,211.1424 C95.9784,211.0416 96.3312,210.9408 96.6,211.0248 C97.0368,211.1592 97.6248,211.344 97.8096,211.68 C97.944,211.9488 97.5744,212.4864 97.4064,212.9736 C95.5416,211.6128 95.004,211.7976 94.4496,213.864 C94.248,214.6032 94.1472,215.3928 94.1472,216.1656 C94.1472,217.7952 94.9032,218.1648 96.3144,217.3248 C96.5664,217.1736 96.8184,217.0056 97.0704,216.8544 C97.1208,216.9384 97.188,217.0392 97.2552,217.1568 Z" id="Path"></path>
                        <path d="M120.0528,219.0552 C119.7672,218.904 119.2296,218.7192 118.8936,218.3496 C118.7088,218.148 118.8432,217.6272 118.8432,217.2576 C119.196,217.2576 119.5488,217.2072 119.8848,217.2744 C120.0864,217.308 120.2208,217.644 120.4224,217.6776 C120.8256,217.728 121.4304,217.7952 121.5984,217.5768 C121.8,217.3248 121.7496,216.7032 121.5648,216.3672 C121.3296,215.9472 120.876,215.628 120.4728,215.3424 C119.5488,214.6704 119.3472,213.7632 119.7504,212.8056 C120.1872,211.7304 120.9936,210.9408 122.2536,211.0416 C122.6736,211.0752 123.0936,211.4784 123.4296,211.7976 C123.5136,211.8816 123.2952,212.4864 123.228,212.4864 C122.8416,212.4696 122.472,212.3016 122.0856,212.268 C121.716,212.2344 121.3464,212.2848 120.9768,212.3016 C121.0104,212.7048 120.9264,213.1584 121.1112,213.4944 C121.296003,213.8304 121.6824,214.0824 122.0352,214.3008 C123.0936,214.9896 123.3288,215.964 122.9088,217.056 C122.4384,218.148 121.5648,218.8536 120.0528,219.0552 Z" id="Path"></path>
                        <path d="M181.944,216.7368 C181.4232,218.1984 179.844,219.24 178.6512,218.9712 C177.24,218.6352 177.2064,217.4424 177.24,216.3504 C177.3072,214.3008 177.9456,212.4864 179.8608,211.4112 C180.3144,211.1592 180.8856,211.008 181.4064,211.0248 C181.7928,211.0416 182.364,211.3104 182.4816,211.6128 C182.616,211.9488 182.3136,212.436 182.1792,212.94 C180.18,211.6464 179.7432,211.8312 179.1888,214.0152 C179.004,214.7544 178.9368,215.544 178.9368,216.3 C178.9536,217.7784 179.6928,218.148 180.9528,217.3584 C181.2552,217.1904 181.524,217.0056 181.944,216.7368 Z" id="Path"></path>
                        <path d="M107.1,218.8872 C107.4696,216.7704 107.8056,214.7544 108.192,212.5536 C107.7048,212.7552 107.3856,212.8896 107.0664,213.024 C106.9824,212.9064 106.8984,212.8056 106.7976,212.688 C107.5368,212.1336 108.2592,211.5288 109.0488,211.0584 C109.1328,211.008 109.6704,211.7304 110.0064,212.1168 C110.124,211.9656 110.3256,211.5792 110.6616,211.3776 C110.9976,211.176 111.5016,211.0248 111.8544,211.1256 C112.0392,211.176 112.2408,211.8816 112.1232,212.1504 C111.9888,212.4528 111.5016,212.604 111.1488,212.7888 C110.7624,212.9904 110.1408,213.0744 110.0232,213.36 C109.5696,214.5864 109.1328,215.8464 108.9648,217.1232 C108.7968,218.2824 108.4104,218.904 107.1,218.8872 Z" id="Path"></path>
                        <path d="M208.2864,218.8704 C208.6224,216.7872 208.9584,214.7712 209.3112,212.5872 C208.8408,212.7888 208.5216,212.9232 208.2192,213.0408 C208.1688,212.94 208.0848,212.8392 208.1184,212.7888 C208.6896,211.8312 209.4624,211.1424 210.7392,210.924 C210.7728,211.5456 210.8064,212.016 210.84,212.5704 C211.2264,212.1 211.512,211.6128 211.9152,211.2936 C212.184,211.092 212.772,210.9912 212.9904,211.1592 C213.2256,211.3272 213.3264,211.9152 213.2088,212.2344 C213.108,212.5032 212.6544,212.6712 212.3352,212.856 C211.8984,213.108 211.1928,213.2256 211.0416,213.5784 C210.588,214.7544 210.1848,215.9976 210.0336,217.2408 C209.9328,218.2824 209.5968,218.8536 208.2864,218.8704 Z" id="Path"></path>
                        <path d="M70.7952,212.5032 C70.224,212.772 69.888,212.9232 69.552,213.0744 C69.468,212.94 69.384,212.8056 69.3,212.6712 C70.2072,212.0328 71.1312,211.4112 72.0384,210.7728 C72.2064,210.8904 72.3744,210.9912 72.5424,211.1088 C72.1728,213.1584 71.7864,215.2248 71.4,217.4256 C71.8536,217.2072 72.2064,217.0392 72.5424,216.8712 C72.1896,218.0136 71.3496,218.736 70.3416,218.9208 C69.4512,219.0888 69.636,218.1984 69.7368,217.644 C70.0392,215.9808 70.4088,214.3344 70.7952,212.5032 Z" id="Path"></path>
                        <path d="M156.1392,217.3752 C156.6936,217.1736 157.0296,217.056 157.3824,216.9384 C157.4496,217.056 157.5168,217.1736 157.584,217.2912 C156.6936,217.9296 155.8032,218.5512 154.9128,219.1896 C154.7448,219.0888 154.5768,218.988 154.4088,218.8704 C154.7616,216.8208 155.0976,214.7544 155.484,212.5368 C155.0136,212.772 154.6776,212.94 154.2576,213.1584 C154.7952,211.7472 155.82,211.0584 157.3656,211.1256 C156.9624,213.1752 156.5592,215.1912 156.1392,217.3752 Z" id="Path"></path>
                        <path d="M192.7128,212.5368 C192.2424,212.7552 191.8728,212.9064 191.52,213.0744 C191.436,212.94 191.352,212.8056 191.2848,212.688 C192.2088,212.0496 193.116,211.4112 194.04,210.7728 C194.208,210.8904 194.376,211.008 194.544,211.1256 C194.1744,213.192 193.788,215.2584 193.3848,217.4592 C193.8552,217.224 194.208,217.056 194.544,216.888 C194.6448,217.0224 194.7288,217.14 194.8296,217.2744 C194.04,217.8456 193.3176,218.6184 192.4272,218.9208 C191.4864,219.2568 191.6208,218.2992 191.7048,217.7616 C191.9568,216.3336 192.2928,214.9056 192.5952,213.4776 C192.6456,213.192 192.6624,212.9232 192.7128,212.5368 Z" id="Path"></path>
                        <path d="M51.7104,210.9744 C51.2904,213.1752 50.904,215.1912 50.5008,217.3584 C50.9376,217.1736 51.3072,217.0392 51.6768,216.888 C51.7608,217.0056 51.8616,217.1232 51.9456,217.2576 C51.1392,217.8288 50.4168,218.6016 49.5264,218.8872 C48.5856,219.2064 48.7368,218.2488 48.8376,217.7112 C49.0896,216.2832 49.4256,214.8552 49.728,213.4272 C49.7784,213.1752 49.7952,212.9064 49.8456,212.4864 C49.392,212.7216 49.0392,212.8896 48.7032,213.0576 C48.636,212.9568 48.5688,212.8392 48.4848,212.7384 C49.308,211.9656 50.0136,211.0248 51.7104,210.9744 Z" id="Path"></path>
                        <path d="M230.832,217.812 C230.076,218.3496 229.6392,218.652 229.1856,218.9712 C228.9168,218.568 228.4128,218.1312 228.4632,217.7784 C228.5304,217.3248 229.0512,216.9384 229.3872,216.5184 C229.7736,216.8544 230.1432,217.2072 230.832,217.812 Z" id="Path"></path>
                        <path d="M123.7992,217.7448 C124.4544,217.1904 124.8576,216.8544 125.2608,216.5184 C125.5632,216.9552 126.1344,217.392 126.1008,217.812 C126.0672,218.232 125.4624,218.6016 125.0928,218.988 C124.74,218.6352 124.3704,218.2824 123.7992,217.7448 Z" id="Path"></path>
                        <path d="M158.1552,207.8328 C157.5168,208.2864 157.1472,208.7064 156.7104,208.7904 C156.5088,208.824 155.8872,208.068 155.9712,207.8664 C156.1392,207.4632 156.5928,207.0768 157.0128,206.9256 C157.2144,206.8416 157.6008,207.3624 158.1552,207.8328 Z" id="Path"></path>
                        <path d="M73.3656,207.7488 C72.7608,208.236 72.4248,208.656 72.0048,208.7904 C71.82,208.8408 71.1816,208.1856 71.232,208.0848 C71.4336,207.6312 71.7864,207.2112 72.1896,206.9256 C72.2904,206.8416 72.7776,207.312 73.3656,207.7488 Z" id="Path"></path>
                        <path d="M51.1896,206.3376 C51.66,207.06 52.1136,207.48 52.0296,207.6816 C51.8448,208.1352 51.3912,208.4544 51.0552,208.8408 C50.8032,208.5384 50.3328,208.2192 50.3664,207.9504 C50.3832,207.5304 50.7528,207.1272 51.1896,206.3376 Z" id="Path"></path>
                        <path d="M193.956,209.3784 C193.536,208.6392 193.116,208.236 193.2,208.0008 C193.3344,207.5808 193.7712,207.2448 194.0736,206.8752 C194.3592,207.1944 194.88,207.5136 194.8632,207.816 C194.8632,208.2192 194.4432,208.6056 193.956,209.3784 Z" id="Path"></path>
                        <path d="M114.3072,214.6368 C114.6096,213.8976 114.8448,213.1248 115.248,212.4528 C115.4328,212.1504 115.9704,212.0664 116.34,211.8816 C116.424,212.3352 116.7096,212.9568 116.5248,213.2256 C116.0544,213.8976 115.3488,214.4016 114.744,214.956 C114.5928,214.8552 114.4584,214.7544 114.3072,214.6368 Z" id="Path"></path>
                    </g>
                </g>
            </g>
        </g>
    </g>
</svg>