<?xml version="1.0" encoding="UTF-8"?>
<svg width="544px" height="329px" viewBox="0 0 544 329" version="1.1" xmlns="http://www.w3.org/2000/svg" xmlns:xlink="http://www.w3.org/1999/xlink">
    <!-- Generator: sketchtool 63.1 (101010) - https://sketch.com -->
    <title>B88D01A1-03E0-4F90-85E1-FF63956DBC73</title>
    <desc>Created with sketchtool.</desc>
    <g id="Page-1" stroke="none" stroke-width="1" fill="none" fill-rule="evenodd">
        <g id="210915_gamiplat_landing_page" transform="translate(-1020.000000, -2300.000000)">
            <g id="Image3" transform="translate(1020.000000, 2300.000000)">
                <rect id="box-copy-2" fill="#141414" x="0" y="0" width="544" height="329" rx="4"></rect>
                <g id="shift4-payments-vector-logo" transform="translate(97.000000, 113.000000)">
                    <g id="Group">
                        <g transform="translate(41.180000, 0.000000)" fill="#0081C9">
                            <path d="M10.324,0.406 C6.96,0.406 3.654,0.754 0.464,1.334 L0.464,12.644 C0.464,12.644 20.532,14.21 22.852,36.424 L41.644,11.136 C33.06,4.408 22.156,0.406 10.324,0.406" id="Path"></path>
                            <polygon id="Path" points="44.138 19.894 44.138 32.48 34.278 32.48"></polygon>
                        </g>
                        <g transform="translate(0.000000, 21.460000)" fill="#0081C9">
                            <path d="M93.148,0.58 L93.148,26.622 L85.086,26.622 L85.086,16.936 L52.664,16.936 C52.664,16.936 53.36,0.348 34.684,0.348 C26.564,0.348 19.314,5.684 19.14,10.904 C18.734,19.372 30.74,23.606 43.326,26.158 C50.75,27.666 58.696,31.378 61.944,35.612 C66.526,41.644 66.12,47.618 66.12,47.618 C66.12,47.618 67.628,66.816 41.702,70.818 L41.702,79.692 C44.892,80.33 48.198,80.62 51.562,80.62 C79.634,80.62 102.428,57.826 102.428,29.754 C102.37,27.782 102.95,14.558 93.148,0.58" id="Path"></path>
                            <path d="M9.338,1.218 C9.338,1.218 -9.396,27.608 7.83,50.982 C16.298,60.436 30.798,61.654 38.744,60.958 C44.138,60.436 47.676,58.696 49.706,56.898 C53.65,53.476 57.652,46.748 47.27,40.542 C35.38,33.64 15.022,36.076 8.526,21.866 C8.526,21.866 3.944,14.094 9.338,1.218" id="Path"></path>
                        </g>
                        <g transform="translate(114.840000, 0.000000)" fill="#FFFFFF">
                            <path d="M0.348,102.196 L0.348,81.78 L4.988,81.78 C6.786,81.78 8.12,81.838 8.99,82.012 C9.86,82.186 10.614,82.418 11.252,82.766 C12.064,83.23 12.644,83.868 13.108,84.68 C13.514,85.492 13.746,86.362 13.746,87.348 C13.746,89.32 13.05,90.712 11.716,91.64 C10.382,92.568 8.236,92.974 5.336,92.974 L2.668,92.974 L2.668,102.138 L0.348,102.138 L0.348,102.196 Z M2.668,91.408 L2.668,91.408 L4.234,91.408 C7.018,91.408 8.874,91.118 9.86,90.538 C10.846,89.958 11.31,88.972 11.31,87.522 C11.31,86.942 11.194,86.362 10.962,85.84 C10.73,85.318 10.44,84.854 9.976,84.506 C9.512,84.1 8.932,83.81 8.12,83.636 C7.366,83.462 6.032,83.404 4.176,83.404 L2.61,83.404 L2.61,91.408 L2.668,91.408 Z" id="Shape"></path>
                            <path d="M23.606,102.08 L34.684,81.722 L45.298,102.08 L42.804,102.08 L39.556,95.468 L29.232,95.468 L25.868,102.08 L23.606,102.08 Z M30.044,93.96 L30.044,93.96 L38.86,93.96 L34.568,85.434 L30.044,93.96 Z" id="Shape"></path>
                            <polygon id="Path" points="62.524 102.196 62.524 92.8 54.172 81.78 56.898 81.78 63.684 91.118 70.528 81.78 73.138 81.78 64.844 92.8 64.844 102.196"></polygon>
                            <polygon id="Path" points="98.89 102.196 90.016 87.232 88.102 102.196 85.724 102.196 89.146 81.78 98.832 98.426 108.866 81.78 112.114 102.196 109.736 102.196 107.88 87.232"></polygon>
                            <polygon id="Path" points="127.832 102.196 127.832 81.78 140.302 81.78 140.302 83.52 130.094 83.52 130.094 89.9 140.302 89.9 140.302 91.64 130.094 91.64 130.094 100.456 140.302 100.456 140.302 102.196"></polygon>
                            <polygon id="Path" points="156.89 102.138 156.89 81.78 174.754 97.556 174.754 81.78 176.9 81.78 176.9 102.196 159.036 86.362 159.036 102.138"></polygon>
                            <polygon id="Path" points="198.592 102.196 198.592 83.52 191.632 83.52 191.632 81.78 207.872 81.78 207.872 83.52 200.912 83.52 200.912 102.196"></polygon>
                            <path d="M219.298,98.368 L221.27,97.556 C221.618,98.484 222.256,99.238 223.184,99.76 C224.112,100.282 225.156,100.572 226.432,100.572 C227.998,100.572 229.274,100.224 230.202,99.47 C231.072,98.716 231.536,97.73 231.536,96.454 C231.536,95.526 231.246,94.714 230.608,94.134 C230.028,93.496 228.694,92.8 226.722,91.988 C224.17,90.944 222.488,90.016 221.676,89.262 C220.806,88.45 220.4,87.522 220.4,86.42 C220.4,85.028 220.98,83.926 222.198,83.056 C223.416,82.186 224.982,81.78 226.896,81.78 C228.172,81.78 229.274,82.012 230.202,82.418 C231.13,82.824 231.884,83.462 232.464,84.274 L230.666,85.086 C230.318,84.506 229.796,84.1 229.1,83.81 C228.404,83.52 227.65,83.346 226.722,83.346 C225.504,83.346 224.518,83.636 223.764,84.216 C223.01,84.796 222.662,85.55 222.662,86.478 C222.662,87.812 224.112,89.088 227.07,90.306 C227.592,90.538 227.998,90.654 228.288,90.77 C230.434,91.698 231.884,92.568 232.58,93.322 C233.334,94.134 233.682,95.178 233.682,96.454 C233.682,98.194 233.044,99.586 231.71,100.63 C230.376,101.674 228.578,102.138 226.316,102.138 C224.634,102.138 223.242,101.79 222.082,101.21 C220.864,100.572 219.936,99.644 219.298,98.368" id="Path"></path>
                            <path d="M3.248,52.548 C7.25,54.752 13.514,56.608 19.952,56.608 C27.956,56.608 32.48,53.128 32.48,47.908 C32.48,43.094 29,40.252 20.242,37.294 C8.758,33.524 1.45,27.898 1.45,18.734 C1.45,8.236 10.904,0.348 25.984,0.348 C33.466,0.348 38.918,1.856 42.514,3.538 L39.556,12.934 C37.004,11.716 32.19,9.918 25.694,9.918 C17.69,9.918 14.326,13.804 14.326,17.574 C14.326,22.504 18.328,24.766 27.55,28.072 C39.556,32.248 45.298,37.816 45.298,47.038 C45.298,57.362 36.888,66.236 19.14,66.236 C11.774,66.236 4.176,64.322 0.348,62.176 L3.248,52.548 Z" id="Path"></path>
                            <path d="M49.996,0.406 L62.002,0.406 L62.002,27.434 L62.176,27.434 C63.626,25.346 65.714,23.664 68.15,22.504 C70.586,21.228 73.428,20.532 76.444,20.532 C84.564,20.532 93.032,25.462 93.032,39.556 L93.032,65.424 L81.026,65.424 L81.026,40.774 C81.026,34.452 78.474,29.58 71.862,29.58 C67.164,29.58 63.858,32.48 62.524,35.786 C62.118,36.772 62.06,37.932 62.06,39.092 L62.06,65.366 L50.054,65.366 L50.054,0.406 L49.996,0.406 Z" id="Path"></path>
                            <path d="M224.576,39.556 L224.576,0.406 L208.858,0.406 L180.09,40.832 L180.09,48.836 L211.99,48.836 L211.99,65.308 L224.518,65.308 L224.518,48.836 L233.624,48.836 L233.624,39.556 L224.576,39.556 Z M212.106,39.556 L211.99,39.556 L193.082,39.556 L212.57,12.122 L212.106,39.556 Z" id="Shape"></path>
                            <path d="M144.13,21.46 L133.632,21.46 L133.632,19.198 C133.632,13.804 135.604,9.222 141.52,9.222 C143.782,9.222 145.348,9.57 146.682,10.034 L147.436,1.508 C145.58,0.986 143.028,0.406 139.838,0.406 C135.662,0.406 130.964,1.566 127.426,4.64 C123.308,8.236 121.684,13.92 121.684,19.604 L121.684,21.518 L115.652,21.518 L115.652,29.812 L121.684,29.812 L121.684,65.366 L133.69,65.366 L133.69,29.812 L144.072,29.812 L144.072,21.46 L144.13,21.46 Z" id="Path"></path>
                            <path d="M149.35,29.754 L155.962,29.754 L155.962,50.344 C155.962,56.086 157.122,60.146 159.79,62.698 C162.052,64.96 165.648,66.294 170.114,66.294 C173.826,66.294 177.016,65.772 178.814,65.134 L178.64,56.782 C177.248,57.13 176.088,57.246 173.942,57.246 C169.36,57.246 167.794,54.52 167.794,49.126 L167.794,29.754 L177.654,29.754 L177.654,21.46 L167.794,21.46 L167.794,10.208 L156.02,13.282 L156.02,21.46 L149.408,21.46 L149.408,29.754 L149.35,29.754 Z" id="Path"></path>
                            <polygon id="Path" points="98.484 21.46 98.484 21.46 110.49 21.46 110.49 65.308 98.484 65.308"></polygon>
                        </g>
                        <g transform="translate(213.440000, 0.000000)" fill="#FFFFFF">
                            <path d="M11.948,10.962 C11.948,7.656 9.28,4.988 5.974,4.988 C2.668,4.988 0,7.656 0,10.962 C0,14.268 2.668,16.936 5.974,16.936 C9.28,16.936 11.948,14.268 11.948,10.962" id="Path"></path>
                            <path d="M131.602,0.29 C132.182,0.29 132.762,0.464 133.284,0.754 C133.864,1.044 134.27,1.508 134.56,2.03 C134.85,2.61 135.024,3.19 135.024,3.77 C135.024,4.35 134.85,4.93 134.56,5.51 C134.27,6.09 133.806,6.496 133.284,6.786 C132.762,7.076 132.182,7.25 131.544,7.25 C130.964,7.25 130.384,7.076 129.804,6.786 C129.282,6.496 128.818,6.032 128.528,5.51 C128.238,4.93 128.064,4.408 128.064,3.77 C128.064,3.19 128.238,2.61 128.528,2.03 C128.818,1.45 129.282,1.044 129.804,0.754 C130.442,0.464 131.022,0.29 131.602,0.29 M131.602,0.87 C131.138,0.87 130.616,0.986 130.21,1.218 C129.746,1.45 129.398,1.798 129.108,2.262 C128.818,2.726 128.702,3.19 128.702,3.712 C128.702,4.234 128.818,4.698 129.108,5.162 C129.34,5.626 129.746,5.974 130.152,6.206 C130.616,6.438 131.08,6.612 131.602,6.612 C132.124,6.612 132.588,6.496 133.052,6.206 C133.516,5.974 133.864,5.568 134.096,5.162 C134.328,4.698 134.502,4.234 134.502,3.712 C134.502,3.19 134.386,2.726 134.096,2.262 C133.806,1.798 133.458,1.45 132.994,1.218 C132.53,0.986 132.066,0.87 131.602,0.87 M130.036,5.684 L130.036,1.972 L131.312,1.972 C131.776,1.972 132.066,2.03 132.24,2.088 C132.414,2.146 132.588,2.262 132.704,2.436 C132.82,2.61 132.878,2.784 132.878,2.958 C132.878,3.248 132.762,3.48 132.588,3.654 C132.414,3.886 132.124,3.944 131.834,4.002 C131.95,4.06 132.066,4.118 132.124,4.176 C132.298,4.35 132.472,4.582 132.704,4.93 L133.168,5.684 L132.414,5.684 L132.066,5.104 C131.834,4.64 131.602,4.35 131.428,4.234 C131.312,4.118 131.138,4.118 130.964,4.118 L130.616,4.118 L130.616,5.684 L130.036,5.684 Z M130.674,3.596 L131.428,3.596 C131.776,3.596 132.008,3.538 132.124,3.422 C132.24,3.306 132.298,3.19 132.298,3.016 C132.298,2.9 132.24,2.784 132.182,2.726 C132.124,2.61 132.008,2.552 131.95,2.552 C131.834,2.494 131.66,2.494 131.37,2.494 L130.674,2.494 L130.674,3.596 L130.674,3.596 Z" id="Shape" fill-rule="nonzero"></path>
                        </g>
                    </g>
                </g>
            </g>
        </g>
    </g>
</svg>